<?xml version="1.0" encoding="UTF-8"?><svg xmlns="http://www.w3.org/2000/svg" viewBox="0 0 173.48 173.48"><defs><style>.d{fill:#fff;}</style></defs><g id="a"/><g id="b"><g id="c"><g><rect width="173.48" height="173.48"/><g><path class="d" d="M108.95,39.32h-44.43c-13.62,0-24.77,11.38-24.77,25.29v43.37c0,13.91,11.14,25.29,24.77,25.29h44.43c13.62,0,24.77-11.38,24.77-25.29v-43.37c0-13.91-11.14-25.29-24.77-25.29Zm16.36,68.04c0,9.63-7.72,17.51-17.15,17.51h-42.85c-9.43,0-17.15-7.88-17.15-17.51v-42.12c0-9.63,7.72-17.51,17.15-17.51h42.85c9.43,0,17.15,7.88,17.15,17.51v42.12Z"/><path class="d" d="M86.73,62.18c-13.05,0-23.62,10.8-23.62,24.13s10.58,24.13,23.62,24.13,23.62-10.8,23.62-24.13-10.58-24.13-23.62-24.13Zm0,39.69c-8.42,0-15.24-6.97-15.24-15.56,0-8.6,6.82-15.56,15.24-15.57,8.42,0,15.24,6.97,15.24,15.56s-6.82,15.56-15.24,15.57Z"/><ellipse class="d" cx="111.63" cy="60.88" rx="5.33" ry="5.45"/></g></g></g></g></svg>