<?xml version="1.0" encoding="UTF-8"?><svg xmlns="http://www.w3.org/2000/svg" viewBox="0 0 78 78"><defs><style>.d{fill:#fff;}.e{fill:#382400;}</style></defs><g id="a"/><g id="b"><g id="c"><g><rect class="e" width="78" height="78" rx="11.52" ry="11.52"/><g><path class="d" d="M48.99,17.68H29.01c-6.12,0-11.14,5.12-11.14,11.37v19.5c0,6.25,5.01,11.37,11.14,11.37h19.97c6.12,0,11.14-5.12,11.14-11.37V29.05c0-6.25-5.01-11.37-11.14-11.37Zm7.35,30.59c0,4.33-3.47,7.87-7.71,7.87H29.37c-4.24,0-7.71-3.54-7.71-7.87V29.33c0-4.33,3.47-7.87,7.71-7.87h19.26c4.24,0,7.71,3.54,7.71,7.87v18.94Z"/><path class="d" d="M39,27.96c-5.87,0-10.62,4.86-10.62,10.85s4.76,10.85,10.62,10.85,10.62-4.86,10.62-10.85-4.76-10.85-10.62-10.85Zm0,17.85c-3.78,0-6.85-3.13-6.85-7,0-3.87,3.07-7,6.85-7,3.78,0,6.85,3.13,6.85,7s-3.07,7-6.85,7Z"/><ellipse class="d" cx="50.19" cy="27.37" rx="2.4" ry="2.45"/></g></g></g></g></svg>