<?xml version="1.0" encoding="UTF-8"?><svg xmlns="http://www.w3.org/2000/svg" xmlns:xlink="http://www.w3.org/1999/xlink" viewBox="0 0 78 78"><defs><style>.h{fill:#160e00;}.i{fill:#c8daea;}.j{fill:url(#f);}.k{fill:#a9c9dd;}</style><linearGradient id="f" x1="-1301.11" y1="445.76" x2="-1300.34" y2="446.99" gradientTransform="translate(13595.59 -4605.46) scale(10.42)" gradientUnits="userSpaceOnUse"><stop offset="0" stop-color="#eff7fc"/><stop offset="1" stop-color="#fff"/></linearGradient></defs><g id="a"/><g id="b"><g id="c"><g><rect class="h" width="78" height="78" rx="12.31" ry="12.31"/><g><path id="d" class="i" d="M32.47,54.32c-1.25,0-1.02-.48-1.47-1.66l-3.65-12.03,22.66-14.14,2.66,.7-2.21,6.02-17.98,21.12Z"/><path id="e" class="k" d="M32.47,54.32c.96,0,1.38-.45,1.92-.96,.83-.8,11.52-11.2,11.52-11.2l-6.56-1.6-6.08,3.84-.8,9.6v.32Z"/><path id="g" class="j" d="M33.11,44.53l15.49,11.42c1.76,.96,3.04,.48,3.49-1.63l6.3-29.69c.64-2.59-.99-3.74-2.69-2.98l-36.99,14.27c-2.53,1.02-2.5,2.43-.45,3.04l9.5,2.98,21.98-13.86c1.02-.64,1.98-.29,1.22,.42l-17.86,16.03Z"/></g></g></g></g></svg>