<?xml version="1.0" encoding="UTF-8"?><svg xmlns="http://www.w3.org/2000/svg" xmlns:xlink="http://www.w3.org/1999/xlink" viewBox="0 0 173.48 173.48"><defs><style>.h{fill:#160e00;}.i{fill:#c8daea;}.j{fill:url(#f);}.k{fill:#a9c9dd;}</style><linearGradient id="f" x1="-1252.97" y1="493.38" x2="-1251.26" y2="496.11" gradientTransform="translate(13146.05 -5055) scale(10.42)" gradientUnits="userSpaceOnUse"><stop offset="0" stop-color="#eff7fc"/><stop offset="1" stop-color="#fff"/></linearGradient></defs><g id="a"/><g id="b"><g id="c"><g><rect class="h" width="173.48" height="173.48" rx="30.66" ry="30.66"/><g><path id="d" class="i" d="M72.22,120.81c-2.78,0-2.28-1.07-3.27-3.7l-8.11-26.76,50.39-31.46,5.91,1.57-4.91,13.38-40,46.97Z"/><path id="e" class="k" d="M72.22,120.81c2.14,0,3.06-1,4.27-2.14,1.85-1.78,25.62-24.91,25.62-24.91l-14.59-3.56-13.52,8.54-1.78,21.35v.71Z"/><path id="g" class="j" d="M73.64,99.03l34.45,25.41c3.91,2.14,6.76,1.07,7.76-3.63l14.02-66.04c1.42-5.76-2.21-8.33-5.98-6.62l-82.27,31.74c-5.62,2.28-5.55,5.41-1,6.76l21.14,6.62,48.89-30.82c2.28-1.42,4.41-.64,2.7,.93l-39.71,35.65Z"/></g></g></g></g></svg>