<?xml version="1.0" encoding="UTF-8"?><svg xmlns="http://www.w3.org/2000/svg" viewBox="0 0 173.48 173.48"><defs><style>.e{fill:#fff;}.f{fill:#160e00;}</style></defs><g id="a"/><g id="b"><g id="c"><g><rect class="f" width="173.48" height="173.48" rx="30.41" ry="30.41"/><path id="d" class="e" d="M126.37,52.3c-2.65,1.33-5.49,2.34-8.46,2.99-.36,.08-.74-.05-1-.31-3.31-3.4-7.91-5.5-12.98-5.5-10.13,0-18.34,8.42-18.34,18.81,0,1.01,.07,2.01,.22,2.98,.1,.67-.45,1.27-1.13,1.22-14.12-1.11-26.65-7.96-35.4-18.31-.51-.6-1.47-.49-1.8,.23-1.11,2.43-1.72,5.13-1.72,7.98,0,5.21,2.06,9.93,5.4,13.34,.76,.77,.03,2.05-1.02,1.79-1.6-.4-3.13-1.02-4.54-1.82v.23c0,7.57,4.36,14.1,10.65,17.08,1,.48,.66,2.01-.45,2.02-.1,0-.2,0-.31,0-.58,0-1.16-.03-1.73-.08-.8-.08-1.41,.73-1.09,1.47,2.43,5.76,7.59,10.02,13.81,11.09,.94,.16,1.25,1.38,.46,1.92-5.87,4.03-12.94,6.39-20.54,6.39h-.04c-1.12,0-1.52,1.48-.53,2.01,7.26,3.93,15.54,6.17,24.32,6.17,33.75,0,52.2-28.66,52.2-53.53,0-.63,0-1.27-.03-1.9-.01-.34,.14-.66,.42-.87,2.43-1.85,4.63-4.01,6.55-6.41,.66-.83-.16-2.02-1.17-1.68-.95,.32-1.92,.61-2.9,.85-1.06,.26-1.75-1.05-.98-1.81,1.44-1.43,2.66-3.09,3.59-4.94,.46-.92-.54-1.88-1.46-1.41Z"/></g></g></g></svg>