<?xml version="1.0" encoding="UTF-8"?><svg xmlns="http://www.w3.org/2000/svg" viewBox="0 0 78 78"><defs><style>.e{fill:#fff;}.f{fill:#382400;}</style></defs><g id="a"/><g id="b"><g id="c"><g><rect class="f" width="78" height="78" rx="11.18" ry="11.18"/><path id="d" class="e" d="M56.82,23.52c-1.19,.6-2.47,1.05-3.8,1.34-.16,.04-.33-.02-.45-.14-1.49-1.53-3.56-2.47-5.84-2.47-4.55,0-8.25,3.79-8.25,8.46,0,.46,.03,.9,.1,1.34,.05,.3-.2,.57-.51,.55-6.35-.5-11.98-3.58-15.92-8.23-.23-.27-.66-.22-.81,.1-.5,1.09-.77,2.31-.77,3.59,0,2.34,.93,4.47,2.43,6,.34,.35,.01,.92-.46,.8-.72-.18-1.41-.46-2.04-.82v.1c0,3.4,1.96,6.34,4.79,7.68,.45,.21,.3,.9-.2,.91-.05,0-.09,0-.14,0-.26,0-.52-.01-.78-.04-.36-.03-.63,.33-.49,.66,1.09,2.59,3.41,4.51,6.21,4.98,.42,.07,.56,.62,.2,.87-2.64,1.81-5.82,2.87-9.24,2.87h-.02c-.5,0-.68,.67-.24,.91,3.27,1.77,6.99,2.78,10.94,2.78,15.18,0,23.47-12.89,23.47-24.07,0-.29,0-.57-.01-.85,0-.15,.06-.3,.19-.39,1.09-.83,2.08-1.8,2.94-2.88,.3-.37-.07-.91-.53-.76-.43,.14-.86,.27-1.3,.38-.48,.12-.79-.47-.44-.82,.65-.64,1.2-1.39,1.61-2.22,.21-.41-.24-.84-.66-.64Z"/></g></g></g></svg>