<?xml version="1.0" encoding="UTF-8"?><svg xmlns="http://www.w3.org/2000/svg" viewBox="0 0 784 441.58"><defs><style>.d{fill:#262626;}.e{fill:#fff;}</style></defs><g id="a"/><g id="b"><g id="c"><g><g><path class="d" d="M762.58,20.82l3.29-.87v63.1l.79,.28c2.19-9.15,4.47-18.29,6.53-27.47,1.01-4.49,1.09-9.26,2.68-13.5,.63-1.69,4.21-2.28,6.44-3.37l1.69,1.76c-3.16,21.79-6.32,43.58-9.48,65.37l-1.38-.14c.47-5.55,.94-11.1,1.41-16.65-9.12,23.34-3.74,48.17-8.86,72.74,1.54-1.12,2.24-1.78,3.07-2.2,.85-.42,1.83-.6,4.41-1.4-3.25,10.19-6.13,19.21-9,28.23l.95,.42,6.4-8.45c.56,.24,1.12,.49,1.67,.73-14.89,41.87-19.84,85.3-20.31,129.43l-1.63-.03c-.42-3.54-.83-7.09-1.46-12.48-1.03,3.32-1.54,4.97-2.05,6.63-4.67,1.42-6.7,.01-6.7-4.66,0-3.74-.31-7.51,.09-11.21,.22-2.02,1.57-3.95,2.53-5.86,1.15-2.27,3.33-4.49,3.3-6.71-.02-1.33-3.41-2.62-5.31-3.89-.49-.33-1.08-.53-1.6-.77,.39-3.47,.69-6.8,1.16-10.11,.15-1.08,.44-2.63,1.18-3.05,8.08-4.59,5.9-12.55,6.16-19.4,.44-11.89,.12-23.81,.12-36.23h-9.87c-2.59-4.75-1.47-8.37,2.89-10.16,4.96-2.04,7.42-5.29,7-10.96-.18-2.4,1.4-4.92,2.14-7.4,1.03-3.42,2.87-6.83,2.93-10.28,.46-25.81,.46-51.63,.84-77.44,.14-9.09-1.15-18.96,1.95-27.05,4.63-12.08,3.13-24.56,6.01-36.98Z"/><path class="d" d="M725.68,400.89c1.66-2.53,3-5.43,5.1-7.59,3.01-3.1,3.15-5.38-.59-7.78-.87-.56-1.36-1.7-2.72-3.49,2.33,.61,3.44,.9,6.02,1.57-1.74-3.91-3.07-6.88-4.54-10.18h4.63c.63-.93,1.25-1.84,1.99-2.95,1.03,.22,2.17,.47,3.2,.7,1.69-1.56,3.2-2.96,4.98-4.6,7.43,4.89-.51,12.72,3.62,17.23,2.4-5.12,4.95-10.56,7.48-15.96,5.78,2.09,6.78,5.64,3.2,9.73-2.94,3.36-5.8,6.8-9.34,10.97,2.44,6.15,5.11,12.9,8.08,20.37h-5.38c-1.23-2.84-2.09-6.07-3.89-8.64-1.72-2.43-4.16-4.94-6.83-5.85-1.19-.41-4.25,2.67-5.48,4.75-3.26,5.51-6,6.47-9.52,1.73Z"/></g><g><path class="d" d="M687.53,11.46c-10.44,16.9-4.65,35.49-5.92,55.3,7.52,13.53,2.17,28.95-.56,44.68-3.37,19.49-4.89,39.29-7.89,58.86-1.45,9.44-.93,18.28,1.1,27.65,2.4,11.08,2.35,22.69,3.52,34.05,.28,2.7,1.19,5.34,2.08,9.17,.19-.29-.38,.57-.77,1.14,.8,2.21,1.97,4.18,2.19,6.24,.85,8.03,1.9,16.08,1.96,24.13,.17,19.8-.15,39.6-.31,59.39,0,.57-.32,1.15-.6,2.12-1.14-.44-2.08-.81-2.77-1.07,.61-2.24,1.53-4.07,1.54-5.91,.1-19.71,.39-39.43-.17-59.12-.16-5.57-2.89-11.07-4.55-17.01-2.81,1.08-4.49,1.73-5.14,1.98-1.36,8.3-3.37,15.73-3.6,23.2-.25,7.98,1.35,16.01,1.85,24.03,.86,13.68,1.44,27.38,2.26,41.07,.23,3.79,.89,7.56,.42,11.59-.77-2.61-1.53-5.21-2.5-8.52-5.69,9.03,.15,18.28-3.33,27.3-1.04-2.98-2.07-5.95-3.24-9.3-7.29,3.94-2.11,11.08-5.03,16.38-.77,.07-1.9,.18-2.37,.22-2.44-4.34-4.56-8.13-7.44-13.25-1.45,5.59-2.46,9.46-3.46,13.34-.6-.13-1.19-.25-1.79-.38,3.83-31.05,7.66-62.11,11.48-93.16-1-.13-2.01-.27-3.01-.4l-3.2,27.24-1.24-.05c-.52-1.56-1.04-3.13-1.58-4.75-2.85,6.63-5.62,13.08-8.4,19.52-.65-.19-1.31-.37-1.96-.56,.41-3.59,.07-7.47,1.34-10.72,8.81-22.43,10.35-46.32,14.71-69.66,3.58-19.16,8.4-38.09,12.1-57.23,1.28-6.59,.85-13.51,.58-20.37-7.17,9.82-9.43,21.2-12.59,33.02-.55-1.62-1.79-3.35-1.55-4.85,1.66-10.57,3.37-21.14,5.63-31.59,.71-3.27,3.6-6.01,4.67-9.26,1.47-4.46,2.2-9.18,3.15-13.8,1.32-6.42,2.98-12.81,3.74-19.3,2.18-18.67,3.72-37.42,6.02-56.08,1.87-15.18,4.25-30.32,6.94-45.38,.67-3.75,3.44-7.13,5.25-10.69,.8,.26,1.6,.52,2.41,.78Z"/><path d="M673.39,355.52c.25-.43,.12-.22,0,0-.06-.26-.13-.51,0,0Z"/><path d="M674.4,357l-.22,.19c-.06-.07-.18-.15-.17-.22,0-.07,.13-.13,.21-.19l.19,.22Z"/><path d="M674.93,358.68l-.19-.22c.07-.06,.15-.18,.22-.17,.07,0,.13,.13,.19,.21l-.22,.19Z"/></g><g><g><path d="M487,325.77c1.43,6.89-.63,9.91-6.16,8.63v-5.14c2.4-1.36,4.17-2.36,6.16-3.49Z"/><path d="M587.93,385.43l.33,2.22-.33,.03v-2.25Z"/><path class="d" d="M587.79,384.12c-1.85-14.02-1.82-28.48-9.59-41.14-.67-1.1-.93-2.59-.96-3.91-.27-11.12-2.59-21.46-10.21-30.15-1.32-1.5-2.32-4.14-2.02-6.03,.77-4.84,.85-9.17-4.59-13.05,7.79-1.55,14.5-2.88,21.91-4.35-1.04-1.2-1.67-1.93-2.3-2.66-.11,.54-.22,1.08-.34,1.62-7.01,0-14.06,.43-20.99-.27-1.98-.2-4.36-3.44-5.26-5.78-1.49-3.89-1.68-8.26-2.88-12.29-.76-2.56-2.66-4.77-3.51-7.32-2.98-8.94-5.63-17.98-8.62-26.92-1.49-4.47-4.66-8.72-4.89-13.18-.43-8.22,.75-16.52,1.33-25.85-10.75,2.25-13.91-5.12-17.33-11.69-2.29,4.47-4.14,8.07-5.93,11.57h-4.78c1.18,3.79,1.49,7.67,3.4,10.44,8.66,12.52,3.46,25.97,2.39,38.8-.78,9.42-5.07,18.54-7.66,27.84-1.15,4.13-2.99,5.77-7.6,4.31-4.08-1.29-8.52-1.44-12.8-2.1-.12,.57-.24,1.14-.35,1.71,2.17,.69,4.3,1.59,6.51,2.02,4.4,.87,4.84,3.67,3.93,7.29-.97,3.87-3.51,4.18-6.94,3.4-6.32-1.43-12.7-2.57-20.29-4.07-.24,.21-.86,.76-1.73,1.52,2.77,1,4.87,1.67,6.9,2.51,4.91,2.04,10.26,3.48,14.58,6.41,6.37,4.32,5.87,10.23-.26,14.72-1.6-.74-3.13-1.46-5.46-2.55-1.07,4.36-1.95,7.98-3.07,12.54,3.54-.77,5.99-1.3,8.48-1.84,.55,1.39,1.01,2.56,1.93,4.91,2.21-6.5,3.95-11.92,5.92-17.25,.71-1.93,1.59-4.07,3.06-5.39,4.65-4.19,19.66-4.78,24.57-.84,5.58,4.47,11.79,4.77,18.24,4.13,.75-1.19,1.36-2.17,2.19-3.5,.9,1.62,1.54,2.77,2.51,4.51,5.98-1.96,8.04,1.3,9.69,6.76,4.25,14.04,9.25,27.86,13.98,41.77,.2,.58,.6,1.09,.88,1.64,3.36,6.71,6.7,13.44,10.09,20.14,2.19,4.34,4.44,8.65,7.07,13.76,.57-1.52,.84-1.86,.8-2.16Zm-42.06-99.81c-12.96,2.62-25.7,8.14-40.42,5.85,1.05-4.23,1.95-7.83,2.93-11.75l11.62,2.48c.17-.74,.34-1.48,.5-2.22-1.85-.65-3.68-1.4-5.57-1.93-3.55-1-6.3-3.07-5.08-6.91,3.5-11.02,7.46-21.89,11.29-32.8,.18-.52,.77-.91,1.14-1.32,7.2,3.36,25.18,39.84,23.6,48.59Z"/><path class="e" d="M528.39,294.03c7.38-.74,14.83-7.79,22.81,.34-8.02,3.74-15.41,2.09-22.81-.34Z"/><path class="e" d="M512.6,194.99c3.22,5.1,8.97,8.91,8.75,15.77l-1.75,.94c-3-5.21-6-10.42-9.01-15.63,.67-.36,1.34-.72,2.01-1.08Z"/></g><path class="d" d="M467.43,282.34h0c.14-.12,.15-.13,0,0Z"/></g><path class="d" d="M413.14,192.26c-2.27,6.36-7.93,5.84-12.89,6.47-8.18,1.05-9.59,2.52-8.1,10.53,3.3,17.75,7.15,35.41,10.07,53.23,1.16,7.11,.29,14.53,.69,21.78,.11,2.01,1.48,3.96,3.6,5.54,1.75,13.44,3.48,26.89,5.29,40.32,.28,2.09,1.09,4.1,1.4,6.18,.33,2.29,1.36,5.76,.3,6.69-1.83,1.6-5.03,1.64-8.38,2.52-.85-3.97-1.49-6.91-2.12-9.85-.45-.05-.9-.11-1.35-.16-.7,6.81-1.41,13.62-2.11,20.43l-1.68,.26c-.53-2.74-1.05-5.48-1.83-9.53-1.54,1.13-3.36,2.47-5.59,4.11,5.98-26.45,3.96-52.44-4.46-77.89-1.01,.04-2.02,.08-3.03,.12,0-15.95,.1-31.89-.06-47.84-.05-4.46-.31-9.07-1.53-13.31-.91-3.16-3.52-5.84-4.72-7.7-6.18,.53-10.67,.91-16.05,1.37,3.7-11.31,14.51-12.87,20.55-20.26-1.43-1.24-2.86-2.47-4.39-3.79-2-6.76,.07-10.88,6.22-10.41,.57,2.01,1.44,4.29,1.82,6.64,1.05,6.43,3.67,7.56,9.96,7.43,11.14-.23,22.31,1.13,33.46,1.06,10.71-.07,19.52,4.29,28.08,9.88,1.34,.88,2.9,1.43,4.35,2.14-.59,.78-1.19,1.56-1.78,2.34-2.72-.78-5.45-1.55-8.17-2.33-.37,.4-.73,.8-1.1,1.2,2.66,2.35,5.08,5.08,8.06,6.92,2.59,1.6,5.84,2.1,8.74,3.24,4.07,1.6,7.26,4.07,8.06,8.52-12.32-6.04-24.54-12.03-37.22-18.25-3.19,2.4-5.82,1.16-8.45-2.35-3.75-5.01-8.94-6.89-15.63-5.26Z"/><g><path d="M256.93,355.11h-4.17v-.63h4.42l-.25,.63Z"/><path class="d" d="M341.97,216.25c.2-1.41,.42-3.06,.84-6.11-8.28,2.56-15.6,4.82-23.59,7.29-.44-.67-1.41-2.14-2.24-3.41,1.16-1.58,1.99-2.73,3.31-4.53-2.3-.85-3.93-1.67-5.65-2.04-12.04-2.6-24.04-5.44-36.18-7.46-4.47-.75-9.45-.16-13.9,.98-8.31,2.13-16.4,5.05-23.76-2.83-7.04,5.67-15.42,9.52-20.32,17.82,2.53,1.39,4.13,2.27,6.01,3.3-.47,1.13-.55,1.86-.96,2.22-5.82,5.02-10.14,10.82-10.56,18.88-.04,.69-.86,1.67-1.55,1.95-5.76,2.36-6.63,7.2-6.72,12.58-.09,5.88-1.33,11.01-8.55,11.91-.92,.12-1.73,1.13-2.77,1.85,1.27,2.41,2.34,4.45,3.35,6.38,1.84-.38,3.27-.67,5.86-1.2-.66,6.81-1.26,13.01-1.86,19.21l1.12,.14c.43-3.06,.86-6.11,1.42-10.01,1.11,1.18,1.56,1.47,1.73,1.87,4.31,10.59,8.25,21.35,13.03,31.72,2.46,5.33,5.95,10.37,9.82,14.8,4.25,4.86,8.94,9.05,4.46,17,8.59-2.76,15.33-.07,21.94,3.46,2.72,1.45,5.49,3.43,8.4,3.78,12.07,1.48,24.2,2.59,36.33,3.48,3.18,.23,6.46-.82,9.57-1.26-.18-2.71-.26-4.01-.37-5.73,2.51,.26,4.66,.49,7.1,.74,1.12-1.88,2.15-3.61,3.96-6.64h-16.17c1.27-1.53,2.65-1.55,3.87-1.98,1.74-.63,3.38-1.56,5.06-2.37-1.11-1.7-1.82-4.16-3.39-4.96-11.23-5.73-23.64-5.69-34.45-1.2-8.29,3.44-11.7,1.95-16.93-4.13-6.12-7.11-14.65-12.16-20.73-19.29-5.59-6.56-9.34-14.69-14.51-23.14h7.96c-.13-2.06,.09-3.85-.39-5.42-5.36-17.54,9.47-27.98,21.52-32.42,7.82-2.88,15.92-5.04,23.96-7.29,4.9-1.37,9.95-2.19,14.88-3.44,4.07-1.03,8.07-2.33,12.1-3.51l.09-2.65c7.05,3.64,14.1,7.28,21.76,11.24,1.65-8.43,7.68-4.03,12.36-4.62-1.24-2.57-2.25-4.69-3.17-6.59,1.38-1.53,2.27-2.52,3.1-3.43q-3.75-8.52,3.83-14.95Zm-59.16,16.82c-13.46,8.01-28.86,9.01-43.42,12.97-2.02,.55-6.42-.57-6.56-1.42-.46-2.88-.18-6.32,1.11-8.92,1.37-2.78,4.44-4.67,6.33-7.27,2.73-3.75,5.06-7.79,7.58-11.7,.72-1.11,1.5-2.19,2.66-3.88,3.04,1.65,5.59,3.04,8.4,4.56,.74-2.46,1.39-4.63,1.87-6.22,6.48,.61,12.52,.87,18.42,1.91,2.12,.37,3.98,2.54,5.84,4.04,1.84,1.48,3.41,3.3,5.29,4.7,2.75,2.05,5.67,3.85,8.51,5.76-5.64,1.85-11.4,2.7-16.03,5.46Z"/></g><g><path class="d" d="M64.26,178.43c-1.76-2.23-3.29-4.17-5.18-6.56-3.94-.33-8.26-.69-13.05-1.1l-3.25,4.77-2.94-10.16c9.08-4.83-.78-11.22,3.37-17.4,2.03,0,5.21-.52,8.13,.13,3.99,.88,7.76,2.71,11.65,4.04,4.97,1.7,8.74-.68,8.88-6.1,.2-7.58,.34-15.21-.25-22.76-1.42-18.26-3.3-36.49-4.94-54.74-.61-6.79-1.77-7.72-8.57-7.62-9.01,.14-16.72,3.01-23.46,9.15-1.76,1.61-6.14,2.96-7.4,1.98-2.98-2.32-6.4-5.93-6.79-9.35-1.14-9.9-1.72-10.85-11.61-8.81-5.28,1.09-6.15,.34-8.86-8.4,20.3-1.99,39.96-10.2,60.74-2.9,4.4-2.35,6.19-6.11,5.29-10.84-1.2-6.36-2.97-12.61-4.23-18.96-.51-2.59-.32-5.32-.44-7.98l1.92-.46,2.39,8.25,3.15-1.01c1.74,8.97,3.42,17.66,5.1,26.34l1.76,.16c.55-1.39,1.37-2.73,1.59-4.17,1.5-9.7,2.83-19.43,4.34-29.14,.26-1.66,1.08-3.24,2.7-4.79V12.28c2.02-3.36,3.3-5.48,4.64-7.71,5.01-.38,7.13,2.44,7.22,6.89,.12,6.1-.21,12.21-.24,18.32,0,1.94,.34,3.87,.69,7.52,4.52-.81,9.41-.29,12.16-2.48,6.01-4.77,12.73-4.29,19.42-4.88,3.48-.31,7.05,.01,10.44-.66,3.75-.74,7.33-2.3,10.99-3.5l-.22-1.61,2.51,1.88-.2-1.51c7.46-1.23,14.95-2.3,22.37-3.74,10.13-1.97,20.18-4.39,30.33-6.29,4.91-.92,9.96-1.08,16.29-1.72-2.19,3.78-3.56,6.16-5.84,10.1,7.31,0,13.44,.05,19.58-.02,2.62-.03,5.3,.01,7.84-.52,7.4-1.55,10.97,3.64,16.07,8.71-3.05,1.18-5.33,2.73-7.68,2.84-11.93,.59-23.89,.67-35.82,1.21-12.57,.57-25.16,1.03-37.65,2.39-7.19,.78-14.15,3.56-21.32,4.85-3.3,.59-6.95,.23-10.27-.49-7.4-1.61-14.17,.07-21.16,2.48,.4,2.54,.71,4.57,1.13,7.23-12.06,.86-23.77,1.69-36.37,2.59-1.19,35.3-2.36,70.11-3.57,106.08,6.82-2.87,10.87-1.4,14.1,3.26,.8,1.16,2.96,1.8,4.56,1.92,10.69,.84,21.39,1.92,32.09,2.04,10.44,.11,20.91-1.44,31.33-1.12,8.62,.26,17.19,2.16,26.73,3.47-1.15,2.34-1.5,4.41-2.41,4.69-5.5,1.73-11.11,3.2-16.74,4.46-2.6,.58-5.35,.5-9.61,.85,5.34,4.04,12.22,2.68,13.87,10.37-30.62-2.12-60.65-4.19-90.17-6.23-2.67,4.14-1.7,6.61,1.64,7.21,3.79,.68,4.75,2.92,5.32,6.11,6.7,37.9,13.46,75.79,20.19,113.68,1.2,6.75,2.45,13.49,3.37,20.28,.41,3.01,.07,6.13,.07,10.42-3.77-2.78-6.86-5.06-10.48-7.74v23.58c-1.75,.43-2.78,.68-4.49,1.09-.31,6.35-1.25,12.83-.81,19.21,1.33,19.26,3.22,38.47,4.81,57.71,.13,1.59-.38,3.24-.75,6.06-14.08-15.5-9.14-34.24-12.87-51.46-2.18-.59-4.63-1.25-7.55-2.03-2.54,13.87,1.1,28.55-6.57,41.23-.64-.02-1.29-.05-1.93-.07,.72-17.18,1.43-34.35,2.15-51.53-.43-.06-.86-.12-1.28-.19-.7,2.95-1.4,5.91-2.1,8.86,2.14-39.91,5.9-79.63,3.92-119.6-1.98,19.46-3.95,38.93-5.93,58.39-.46-.04-.91-.08-1.37-.12,1.41-45.28,2.81-90.56,4.24-136.57-4.49,0-7.53-.39-10.43,.08-6.98,1.14-13.87,2.89-20.86,3.93-2.1,.31-4.43-.91-6.59-2.36,7.06-6.05,18.19-2.4,23.17-11.71Z"/><path d="M77.18,389.95c-.07,.06-.15,.18-.22,.17-.07,0-.13-.13-.19-.21,.07-.06,.15-.18,.22-.17,.07,0,.13,.13,.19,.21Z"/><path class="e" d="M102.29,315.32c-1.1-8.01-2.19-16.02-3.29-24.03,.68-.11,1.37-.23,2.05-.34,1.46,7.94,2.92,15.87,4.38,23.81l-3.14,.56Z"/><path class="e" d="M71.66,73.22c1.01,7.82,2.02,15.65,3.02,23.47l-2.04,.26-3.06-23.47,2.08-.27Z"/></g></g></g></g></svg>